<svg id="Component_wo_TxtSpace" xmlns="http://www.w3.org/2000/svg" viewBox="0 0 77.95 97.75"><path d="M94.43,45.49H57.06a1.21,1.21,0,0,0,0,2.42H94.43a1.21,1.21,0,0,0,0-2.42Z" transform="translate(-18.03 -8.12)"/><path d="M60.34,43.76H91.06a1.21,1.21,0,1,0,0-2.41H60.34a1.21,1.21,0,1,0,0,2.41Z" transform="translate(-18.03 -8.12)"/><rect x="46.11" y="14.07" width="3.28" height="17.43"/><rect x="52.75" y="14.07" width="3.28" height="17.43"/><rect x="59.4" y="14.07" width="3.28" height="17.43"/><rect x="66.04" y="14.07" width="3.28" height="17.43"/><path d="M62.41,20.55H89a1.64,1.64,0,0,0,1.64-1.64A1.7,1.7,0,0,0,89,17.27H76.56v-2.5h7.51v-5H76.56V9.33a1.21,1.21,0,1,0-2.41,0v7.85H62.41a1.64,1.64,0,0,0-1.64,1.64A1.78,1.78,0,0,0,62.41,20.55Z" transform="translate(-18.03 -8.12)"/><path d="M48.4,44.41H39.34V14H47.8l-3.88,9.84a1.26,1.26,0,0,0,2.33.95l3.36-8.63L53,24.82a1.26,1.26,0,0,0,2.33-.95h0L50.73,12.31a1.23,1.23,0,0,0-1.12-.78H39.34V9.89a1.64,1.64,0,0,0-3.28,0v1.64H25.79a1.24,1.24,0,0,0-1.12.78L20.1,23.87a1.26,1.26,0,0,0,2.33.95l3.36-8.63,3.37,8.63a1.26,1.26,0,1,0,2.33-.95h0l-4-9.84H36V44.5H27a1.64,1.64,0,0,0,0,3.28H48.4A1.64,1.64,0,0,0,50,46.14,1.71,1.71,0,0,0,48.4,44.41Z" transform="translate(-18.03 -8.12)"/><path d="M33.47,28.27c0-.08-.08-.26-.17-.26H18.2a.18.18,0,0,0-.17.18v.08a7.91,7.91,0,0,0,9.58,5.87A7.82,7.82,0,0,0,33.47,28.27Z" transform="translate(-18.03 -8.12)"/><path d="M57.12,28H42a.18.18,0,0,0-.17.18v.08a7.94,7.94,0,0,0,15.44,0c.09-.17,0-.26-.17-.26Z" transform="translate(-18.03 -8.12)"/><path d="M33.69,72.11a2.22,2.22,0,0,0-1.38-1c-.25,0-1.12-.13-2.62-.13H27.56a.81.81,0,0,0-.75.75v5.13a.81.81,0,0,0,.75.75h2a8.53,8.53,0,0,0,3.25-.37,2.93,2.93,0,0,0,1-1.13,4.36,4.36,0,0,0,.38-2A4.71,4.71,0,0,0,33.69,72.11Z" transform="translate(-18.03 -8.12)"/><path d="M69,72.11a2.22,2.22,0,0,0-1.38-1c-.25,0-1.12-.13-2.62-.13H62.83a.81.81,0,0,0-.75.75v5.13a.8.8,0,0,0,.75.75h2a8.53,8.53,0,0,0,3.25-.37,2.93,2.93,0,0,0,1-1.13,4.36,4.36,0,0,0,.38-2A3.45,3.45,0,0,0,69,72.11Z" transform="translate(-18.03 -8.12)"/><path d="M88.59,53.35H26.06c-4,0-7.38,2.12-7.38,5v42.52c0,2.76,3.25,5,7.38,5H88.59c4,0,7.38-2.13,7.38-5V58.35C95.85,55.47,92.72,53.35,88.59,53.35ZM38.19,92.49H35.44a.7.7,0,0,1-.63-.37l-2.37-5.25c-.88-2-1.63-3.26-1.88-3.76A4.73,4.73,0,0,0,29.44,82a3.76,3.76,0,0,0-1.88-.25.81.81,0,0,0-.75.75v9.38a.81.81,0,0,1-.75.75H23.93a.81.81,0,0,1-.75-.75V67.36a.81.81,0,0,1,.75-.75h6.88a8.67,8.67,0,0,1,4.13.75,4.76,4.76,0,0,1,2.13,2.5A10.55,10.55,0,0,1,37.82,74a8.6,8.6,0,0,1-1.25,4.88,4.6,4.6,0,0,1-2.38,2A.67.67,0,0,0,33.94,82a12.68,12.68,0,0,1,1.12,1.37,19.76,19.76,0,0,1,2,4.26l1.75,4C39.07,92,38.69,92.49,38.19,92.49Zm16.89-6.37a12,12,0,0,1-2.26,4.75A6.08,6.08,0,0,1,48.07,93a6.72,6.72,0,0,1-5.88-3.5c-1.5-2.37-2.25-5.63-2.25-9.63,0-4.37.75-7.63,2.25-10a6.9,6.9,0,0,1,6-3.63A6.74,6.74,0,0,1,53.57,69,8.2,8.2,0,0,1,55,72a1.79,1.79,0,0,1-1.25,2.25h0a1.81,1.81,0,0,1-2.38-1.12,6,6,0,0,0-.87-1.5,3.09,3.09,0,0,0-2.38-1.13,3.79,3.79,0,0,0-3.25,2.13c-.88,1.37-1.25,3.63-1.25,6.63,0,3.25.37,5.63,1.25,7S46.7,88.37,48,88.37A3.21,3.21,0,0,0,50.45,87a6.87,6.87,0,0,0,1-2.12A1.79,1.79,0,0,1,54,83.74,2.17,2.17,0,0,1,55.08,86.12Zm18.51,6.37H70.83a.67.67,0,0,1-.62-.37l-2.38-5.25c-.87-2-1.62-3.26-1.87-3.76A4.75,4.75,0,0,0,64.83,82,3.74,3.74,0,0,0,63,81.74a.81.81,0,0,0-.75.75v9.38a.81.81,0,0,1-.75.75H59.33a.81.81,0,0,1-.75-.75V67.36a.8.8,0,0,1,.75-.75h6.88a8.62,8.62,0,0,1,4.12.75,4.09,4.09,0,0,1,2,2.5A10.37,10.37,0,0,1,73.09,74a8.53,8.53,0,0,1-1.26,4.88,4.55,4.55,0,0,1-2.37,2A.67.67,0,0,0,69.21,82a12.68,12.68,0,0,1,1.12,1.37,26.44,26.44,0,0,1,2.13,4.26l1.75,4C74.46,92,74.09,92.49,73.59,92.49Zm17.63-6.75A12,12,0,0,1,89,90.49a6,6,0,0,1-4.75,2A6.71,6.71,0,0,1,78.34,89c-1.5-2.37-2.25-5.63-2.25-9.63,0-4.37.75-7.63,2.25-10a6.89,6.89,0,0,1,6-3.63,6.76,6.76,0,0,1,5.38,2.75,8.54,8.54,0,0,1,1.38,3,1.79,1.79,0,0,1-1.26,2.25h0a1.79,1.79,0,0,1-2.37-1.12,5.7,5.7,0,0,0-.88-1.5A3.07,3.07,0,0,0,84.22,70,3.79,3.79,0,0,0,81,72.11c-.87,1.37-1.25,3.63-1.25,6.63,0,3.25.38,5.63,1.25,7s1.88,2.13,3.13,2.13a3.21,3.21,0,0,0,2.5-1.38,6.65,6.65,0,0,0,1-2.12,1.8,1.8,0,0,1,2.5-1.13A2.64,2.64,0,0,1,91.22,85.74Z" transform="translate(-18.03 -8.12)"/></svg>